<?xml version="1.0" standalone="no"?>
<!DOCTYPE svg PUBLIC "-//W3C//DTD SVG 20010904//EN"
 "http://www.w3.org/TR/2001/REC-SVG-20010904/DTD/svg10.dtd">
<svg version="1.0" xmlns="http://www.w3.org/2000/svg"
 width="164.000000pt" height="164.000000pt" viewBox="0 0 164.000000 164.000000"
 preserveAspectRatio="xMidYMid meet">
<metadata>
Created by potrace 1.14, written by Peter Selinger 2001-2017
</metadata>
<g transform="translate(0.000000,164.000000) scale(0.100000,-0.100000)"
fill="#000000" stroke="none">
<path d="M570 1430 c-30 -4 -80 -11 -110 -15 -79 -10 -180 -32 -275 -59 -136
-40 -125 -23 -120 -194 5 -140 12 -222 21 -231 2 -2 13 4 24 14 19 17 20 28
17 162 -3 135 -2 145 16 155 26 14 175 52 262 68 39 7 79 15 90 17 87 18 396
23 550 10 135 -12 307 -47 455 -93 12 -4 16 -18 15 -50 -2 -47 8 -61 40 -60
18 1 20 8 22 82 l1 82 -94 26 c-51 15 -104 29 -116 31 -13 3 -57 11 -98 19
-41 8 -97 18 -125 22 -27 3 -61 9 -75 11 -45 8 -444 10 -500 3z"/>
<path d="M918 1145 c-2 -2 -23 -6 -48 -10 -67 -10 -185 -51 -270 -95 -73 -38
-78 -39 -175 -39 -136 1 -228 -24 -290 -78 -32 -28 -71 -85 -83 -121 l-11 -33
47 42 c62 55 167 105 250 118 40 7 156 10 290 8 209 -3 368 6 384 21 4 4 -28
7 -70 6 -73 0 -150 5 -287 21 -33 4 -61 9 -63 10 -2 2 29 19 70 39 83 41 237
82 306 81 l47 0 5 -45 6 -45 8 46 c8 46 9 47 39 42 50 -7 135 -32 141 -42 3
-5 -12 -21 -34 -36 -22 -15 -40 -30 -40 -32 0 -5 24 -1 148 23 50 9 92 21 92
25 0 15 -149 72 -225 86 -27 5 -233 12 -237 8z"/>
<path d="M1498 1084 c-7 -14 -24 -32 -38 -39 -32 -16 -157 -48 -257 -66 -79
-13 -87 -24 -22 -28 73 -4 78 -16 17 -39 -50 -19 -71 -24 -149 -36 -71 -11
-142 -17 -221 -19 -49 -1 -83 -6 -78 -11 9 -9 329 -11 405 -2 l50 6 -30 -20
c-35 -24 -35 -24 31 -6 54 14 125 13 169 -4 38 -14 43 -12 16 6 -13 9 -41 22
-63 28 l-39 12 74 23 c61 19 78 21 96 11 24 -13 60 -82 61 -116 0 -18 6 -21
40 -21 l41 0 -4 69 c-4 53 -10 77 -32 110 l-28 42 21 63 20 63 -34 0 c-27 0
-37 -5 -46 -26z"/>
<path d="M253 839 c-24 -12 -43 -25 -43 -30 0 -4 19 -1 43 7 54 20 145 19 193
-1 44 -18 56 -13 21 10 -61 40 -150 46 -214 14z"/>
<path d="M698 853 c6 -2 18 -2 25 0 6 3 1 5 -13 5 -14 0 -19 -2 -12 -5z"/>
<path d="M59 714 c-13 -16 -21 -148 -12 -198 6 -31 28 -39 116 -41 63 -1 67 0
67 21 0 19 -5 22 -62 23 -37 1 -65 6 -70 14 -12 19 -9 132 4 145 7 7 38 12 69
12 53 0 69 8 69 36 0 2 -38 4 -84 4 -64 0 -87 -4 -97 -16z"/>
<path d="M317 612 c-31 -66 -57 -125 -57 -129 0 -5 9 -9 21 -9 16 0 29 17 57
74 l36 74 35 -70 c32 -64 63 -94 76 -72 3 4 -21 63 -53 130 l-58 123 -57 -121z"/>
<path d="M530 720 c0 -5 -1 -13 -2 -17 -2 -5 31 -10 72 -13 73 -5 75 -6 77
-32 1 -15 -2 -30 -7 -33 -5 -3 -38 -6 -74 -6 -39 -1 -66 -6 -68 -13 -2 -6 -3
-38 -3 -70 1 -51 3 -60 20 -62 26 -4 33 10 30 61 -2 36 1 43 16 42 10 -1 24
-13 31 -27 36 -73 49 -82 96 -71 2 1 -11 21 -28 45 -30 44 -37 61 -22 53 4 -3
17 -1 30 4 20 7 22 15 22 73 0 49 -4 65 -16 70 -26 10 -174 7 -174 -4z"/>
<path d="M780 711 c-14 -27 -13 -96 3 -109 7 -6 40 -12 72 -14 58 -3 60 -4 63
-32 5 -38 -10 -46 -85 -46 -55 0 -63 -2 -63 -18 0 -17 8 -19 87 -16 67 2 90 6
99 19 13 17 13 110 0 122 -4 4 -36 9 -71 11 -64 4 -65 5 -65 33 0 28 1 28 67
31 55 2 68 6 71 21 3 15 -6 17 -82 17 -74 0 -87 -3 -96 -19z"/>
<path d="M1419 728 c-11 -38 -9 -39 79 -36 73 3 87 6 90 21 3 15 -6 17 -82 17
-47 0 -86 -1 -87 -2z"/>
<path d="M1112 713 c1 -5 -2 -55 -6 -113 -9 -128 -10 -123 7 -126 27 -4 34 11
40 76 3 36 6 67 7 68 0 2 17 -16 39 -39 l39 -43 39 44 40 43 7 -71 c4 -40 10
-72 14 -73 4 0 15 -2 25 -4 17 -3 18 3 12 73 -8 103 -16 166 -20 171 -3 2 -30
-24 -60 -57 l-57 -61 -55 60 c-51 53 -76 72 -71 52z"/>
<path d="M1431 619 c-14 -6 -17 -19 -16 -75 l1 -69 74 -1 c86 -2 96 1 103 25
4 15 -3 17 -59 15 -35 -1 -65 1 -65 5 -1 3 -2 20 -3 37 l-2 31 54 -2 c38 -2
55 2 59 12 3 8 3 16 0 19 -8 8 -125 10 -146 3z"/>
<path d="M1013 521 c-8 -5 -8 -11 -4 -39 0 -5 9 -9 19 -9 18 0 32 14 32 33 0
14 -34 24 -47 15z"/>
<path d="M94 419 c-1 -3 2 -6 9 -6 7 0 80 -4 162 -9 183 -10 960 -12 1105 -2
58 4 113 8 123 8 9 0 17 3 17 8 0 8 -1410 10 -1416 1z"/>
<path d="M1524 418 c-3 -4 5 -5 17 -3 30 6 36 14 9 12 -12 -1 -24 -5 -26 -9z"/>
<path d="M1315 326 c-5 -15 -8 -38 -6 -58 1 -21 21 -24 21 -4 0 7 10 17 23 21
l22 8 -22 4 c-13 2 -23 9 -23 15 0 6 9 8 21 5 12 -3 19 -1 16 6 -4 14 -48 17
-52 3z"/>
<path d="M1378 305 c-5 -43 7 -68 22 -45 7 12 12 12 22 2 19 -19 23 -15 23 22
0 40 -4 45 -38 51 -22 4 -25 1 -29 -30z m44 0 c0 -5 -5 -11 -11 -13 -6 -2 -11
4 -11 13 0 9 5 15 11 13 6 -2 11 -8 11 -13z"/>
<path d="M1473 333 c-8 -3 -13 -22 -13 -44 0 -38 1 -39 35 -39 19 0 35 5 35
10 0 6 -12 10 -26 10 -15 0 -23 4 -19 11 4 6 13 8 21 5 8 -3 14 -1 14 4 0 6
-7 10 -15 10 -8 0 -15 5 -15 11 0 5 4 8 8 5 4 -2 14 -1 22 5 8 5 11 9 5 10 -5
0 -17 2 -25 3 -8 2 -21 1 -27 -1z"/>
<path d="M1546 332 c-3 -3 -6 -23 -6 -44 0 -37 1 -38 35 -38 19 0 35 5 35 10
0 6 -12 10 -27 10 -21 0 -24 3 -13 9 8 6 18 7 22 5 4 -3 8 0 8 5 0 6 -9 11
-20 11 -11 0 -20 5 -20 10 0 6 3 9 8 9 16 -3 32 1 32 9 0 8 -46 12 -54 4z"/>
<path d="M1616 332 c-3 -5 -2 -20 2 -33 8 -20 9 -20 15 -5 8 21 -7 54 -17 38z"/>
<path d="M342 285 c0 -16 2 -22 5 -12 2 9 2 23 0 30 -3 6 -5 -1 -5 -18z"/>
<path d="M430 286 c0 -14 4 -26 8 -26 11 0 12 39 1 45 -5 4 -9 -5 -9 -19z"/>
<path d="M540 295 c-14 -17 -5 -35 18 -34 15 1 15 2 -1 6 -20 5 -17 30 2 25 7
-1 10 2 6 8 -8 13 -10 13 -25 -5z"/>
<path d="M631 301 c-7 -5 -12 -12 -11 -17 1 -5 -4 -10 -11 -13 -6 -2 -9 1 -5
7 3 6 2 13 -4 17 -5 3 -10 4 -10 1 0 -2 -2 -10 -5 -18 -10 -25 41 -20 54 5 6
12 9 14 7 5 -3 -10 -2 -19 2 -22 4 -3 8 4 9 14 2 24 -8 32 -26 21z"/>
<path d="M750 300 c-12 -8 -12 -10 4 -16 14 -5 15 -9 4 -15 -10 -7 -9 -9 5 -9
19 0 23 15 7 25 -6 4 -8 11 -5 16 8 11 4 11 -15 -1z"/>
<path d="M796 295 c4 -8 8 -15 10 -15 2 0 4 7 4 15 0 8 -4 15 -10 15 -5 0 -7
-7 -4 -15z"/>
<path d="M913 294 c-7 -19 11 -39 26 -30 16 10 13 33 -4 40 -9 3 -18 -1 -22
-10z m27 -15 c0 -5 -4 -9 -10 -9 -5 0 -10 7 -10 16 0 8 5 12 10 9 6 -3 10 -10
10 -16z"/>
<path d="M985 299 c-4 -6 -5 -12 -2 -15 2 -3 7 2 10 11 7 17 1 20 -8 4z"/>
<path d="M1057 303 c-4 -3 -7 -11 -7 -17 0 -6 5 -5 12 2 6 6 9 14 7 17 -3 3
-9 2 -12 -2z"/>
<path d="M1091 291 c-6 -10 -7 -21 -4 -25 12 -12 19 -6 19 19 0 30 -2 31 -15
6z"/>
<path d="M1248 283 c2 -12 6 -23 7 -23 1 0 5 11 7 23 3 14 0 24 -7 24 -7 0
-10 -10 -7 -24z"/>
<path d="M7 281 c-4 -17 -3 -21 5 -13 5 5 8 16 6 23 -3 8 -7 3 -11 -10z"/>
<path d="M31 282 c-1 -17 4 -23 16 -20 10 2 18 11 19 21 1 12 1 13 -3 2 -6
-20 -20 -19 -26 3 -3 12 -5 11 -6 -6z"/>
<path d="M80 294 c0 -3 7 -12 15 -20 13 -13 15 -13 15 -1 0 8 -7 17 -15 21 -8
3 -15 3 -15 0z"/>
<path d="M186 284 c-8 -21 -8 -21 9 -21 8 0 15 6 15 13 0 20 -17 26 -24 8z"/>
<path d="M234 285 c26 -20 36 -19 36 3 0 13 -2 14 -9 3 -6 -9 -11 -10 -15 -2
-4 6 -13 11 -19 11 -7 0 -3 -7 7 -15z"/>
<path d="M282 283 c2 -10 12 -19 23 -20 17 -2 17 -1 2 3 -11 4 -16 12 -13 20
3 8 1 14 -5 14 -6 0 -9 -8 -7 -17z"/>
<path d="M376 285 c4 -8 8 -15 10 -15 2 0 4 7 4 15 0 8 -4 15 -10 15 -5 0 -7
-7 -4 -15z"/>
<path d="M400 279 c0 -11 4 -18 10 -14 5 3 7 12 3 20 -7 21 -13 19 -13 -6z"/>
<path d="M471 278 c0 -22 1 -22 9 -3 l9 20 0 -20 c1 -16 3 -17 10 -5 12 17 5
30 -15 30 -8 0 -14 -9 -13 -22z"/>
<path d="M690 280 c0 -11 4 -20 9 -20 5 0 7 9 4 20 -3 11 -7 20 -9 20 -2 0 -4
-9 -4 -20z"/>
<path d="M832 280 c0 -14 2 -19 5 -12 2 6 2 18 0 25 -3 6 -5 1 -5 -13z"/>
<path d="M857 293 c-3 -5 5 -15 18 -21 15 -7 25 -8 25 -2 0 6 -6 10 -14 10 -8
0 -16 5 -18 12 -3 8 -6 9 -11 1z"/>
<path d="M1022 280 c0 -14 2 -19 5 -12 2 6 2 18 0 25 -3 6 -5 1 -5 -13z"/>
<path d="M1137 278 c-6 -23 2 -23 20 0 14 16 14 16 9 0 -3 -10 -1 -18 4 -18 6
0 10 9 10 19 0 25 -37 24 -43 -1z"/>
<path d="M1191 282 c-1 -17 4 -23 16 -20 10 2 18 11 19 21 1 12 1 13 -3 2 -6
-20 -20 -19 -26 3 -3 12 -5 11 -6 -6z"/>
<path d="M996 275 c-3 -8 -1 -15 4 -15 6 0 10 7 10 15 0 8 -2 15 -4 15 -2 0
-6 -7 -10 -15z"/>
<path d="M1620 259 c0 -5 5 -7 10 -4 6 3 10 8 10 11 0 2 -4 4 -10 4 -5 0 -10
-5 -10 -11z"/>
</g>
</svg>
